<?xml version="1.0" encoding="UTF-8"?>
<svg xmlns="http://www.w3.org/2000/svg" viewBox="0 0 121.67 60">
  <defs>
    <style>.cls-1{fill:#5b5e5e;}.cls-2{fill:#cba82c;}</style>
  </defs>
  <g id="Layer_2" data-name="Layer 2">
    <g id="Layer_1-2" data-name="Layer 1">
      <path class="cls-1" d="M4,45H7v.23a4.69,4.69,0,0,1-.19,1.42,3,3,0,0,1-.62,1.07,3.21,3.21,0,0,1-2.53,1.12,3.49,3.49,0,0,1-2.56-1.08,3.73,3.73,0,0,1,0-5.23,3.62,3.62,0,0,1,2.64-1.08,3.56,3.56,0,0,1,1.56.34,4.31,4.31,0,0,1,1.36,1.1l-.76.73a2.6,2.6,0,0,0-2.14-1.16,2.63,2.63,0,0,0-2.66,2.69,2.5,2.5,0,0,0,.85,2,2.54,2.54,0,0,0,1.73.72,2.18,2.18,0,0,0,1.43-.53A1.9,1.9,0,0,0,5.79,46H4Z"></path>
      <polygon class="cls-1" points="9.39 44.37 12.46 44.37 12.46 41.58 13.53 41.58 13.53 48.71 12.46 48.71 12.46 45.38 9.39 45.38 9.39 48.71 8.31 48.71 8.31 41.58 9.39 41.58 9.39 44.37"></polygon>
      <path class="cls-1" d="M19.42,47H16.37l-.79,1.72H14.42l3.52-7.56,3.4,7.56H20.17ZM19,46l-1.05-2.43L16.82,46Z"></path>
      <path class="cls-1" d="M26.26,42.64l-.87.52a1.46,1.46,0,0,0-.47-.56,1.14,1.14,0,0,0-.59-.14,1.07,1.07,0,0,0-.74.25.78.78,0,0,0-.3.63q0,.52.78.84l.71.29a3,3,0,0,1,1.26.85,1.93,1.93,0,0,1,.41,1.24,2.18,2.18,0,0,1-.66,1.63,2.24,2.24,0,0,1-1.64.64,2.18,2.18,0,0,1-1.53-.55,2.55,2.55,0,0,1-.74-1.54L23,46.5a1.78,1.78,0,0,0,.26.86,1.11,1.11,0,0,0,1,.47,1.15,1.15,0,0,0,.84-.34,1.18,1.18,0,0,0,.33-.85,1.23,1.23,0,0,0-.06-.39.7.7,0,0,0-.18-.31,1.18,1.18,0,0,0-.31-.27,3.28,3.28,0,0,0-.46-.25l-.69-.28a2,2,0,0,1-1.46-1.81A1.71,1.71,0,0,1,22.81,42a2.24,2.24,0,0,1,1.53-.54,2.12,2.12,0,0,1,1.92,1.19"></path>
      <path class="cls-1" d="M31.77,42.64l-.87.52a1.55,1.55,0,0,0-.47-.56,1.16,1.16,0,0,0-.6-.14,1.11,1.11,0,0,0-.74.25.8.8,0,0,0-.29.63c0,.35.26.63.77.84l.71.29a3.07,3.07,0,0,1,1.27.85,1.92,1.92,0,0,1,.4,1.24,2.21,2.21,0,0,1-.65,1.63,2.25,2.25,0,0,1-1.64.64,2.16,2.16,0,0,1-1.53-.55,2.45,2.45,0,0,1-.74-1.54l1.08-.24a1.89,1.89,0,0,0,.26.86,1.13,1.13,0,0,0,1,.47,1.16,1.16,0,0,0,.84-.34,1.18,1.18,0,0,0,.33-.85,1.23,1.23,0,0,0-.06-.39,1,1,0,0,0-.18-.31,1.24,1.24,0,0,0-.32-.27,2.44,2.44,0,0,0-.46-.25l-.68-.28a2,2,0,0,1-1.47-1.81A1.72,1.72,0,0,1,28.32,42a2.23,2.23,0,0,1,1.52-.54,2.12,2.12,0,0,1,1.93,1.19"></path>
      <path class="cls-1" d="M37.36,47h-3l-.79,1.72H32.36l3.52-7.56,3.4,7.56H38.1Zm-.44-1-1.06-2.43L34.76,46Z"></path>
      <polygon class="cls-1" points="40.17 48.7 40.17 41.1 45.36 46.53 45.36 41.58 46.44 41.58 46.44 49.14 41.24 43.72 41.24 48.7 40.17 48.7"></polygon>
      <path class="cls-1" d="M55.24,47H52.19L51.4,48.7H50.24l3.53-7.56,3.4,7.56H56Zm-.44-1-1-2.43L52.64,46Z"></path>
      <path class="cls-1" d="M58.06,48.7V41.58h1.07a5,5,0,0,1,1.14.11,1.78,1.78,0,0,1,.72.38,1.84,1.84,0,0,1,.47.68,2,2,0,0,1,.18.83,1.66,1.66,0,0,1-.58,1.29,1.73,1.73,0,0,1,.89.68,1.93,1.93,0,0,1,.34,1.12,1.9,1.9,0,0,1-.6,1.41,1.94,1.94,0,0,1-.79.49,4.69,4.69,0,0,1-1.22.13Zm1.07-4.06h.34a1.28,1.28,0,0,0,.88-.26,1.06,1.06,0,0,0,.27-.78,1,1,0,0,0-.28-.77,1.21,1.21,0,0,0-.83-.26h-.38Zm0,3h.67a1.62,1.62,0,0,0,1.06-.28,1,1,0,0,0,.36-.78,1,1,0,0,0-.34-.78,1.78,1.78,0,0,0-1.2-.31h-.55Z"></path>
      <path class="cls-1" d="M63.23,45.11a3.5,3.5,0,0,1,1.1-2.58A3.64,3.64,0,0,1,67,41.45a3.68,3.68,0,0,1,2.61,6.31,3.78,3.78,0,0,1-5.14.12,3.49,3.49,0,0,1-1.21-2.77m1.08,0a2.56,2.56,0,0,0,.8,1.94,2.63,2.63,0,0,0,3.71,0,2.63,2.63,0,0,0,.77-1.91,2.57,2.57,0,0,0-.76-1.9A2.5,2.5,0,0,0,67,42.46a2.65,2.65,0,0,0-2.65,2.66"></path>
      <path class="cls-1" d="M73.1,41.58v4.29a2.35,2.35,0,0,0,.3,1.34,1.61,1.61,0,0,0,2.52,0,2.31,2.31,0,0,0,.3-1.34V41.58H77.3v4.59A2.58,2.58,0,0,1,76.6,48a2.6,2.6,0,0,1-1.94.81A2.57,2.57,0,0,1,72.73,48a2.54,2.54,0,0,1-.7-1.85V41.58Z"></path>
      <path class="cls-1" d="M79,48.7V41.58h1.5a5.23,5.23,0,0,1,1.7.22,3.09,3.09,0,0,1,1.21.7,3.42,3.42,0,0,1,1.1,2.64,3.48,3.48,0,0,1-2.36,3.37,5.58,5.58,0,0,1-1.67.19Zm1.08-1h.48a4.16,4.16,0,0,0,1.21-.15,2.52,2.52,0,0,0,.86-.51,2.43,2.43,0,0,0,.8-1.89,2.46,2.46,0,0,0-.79-1.9,3,3,0,0,0-2.08-.65h-.48Z"></path>
      <path class="cls-1" d="M92.44,45h2.94v.23a4.69,4.69,0,0,1-.19,1.42,3,3,0,0,1-.62,1.07,3.2,3.2,0,0,1-2.52,1.12,3.46,3.46,0,0,1-2.56-1.08,3.71,3.71,0,0,1,4.21-6,4.31,4.31,0,0,1,1.36,1.1l-.76.73a2.6,2.6,0,0,0-2.14-1.16,2.54,2.54,0,0,0-1.89.78,2.59,2.59,0,0,0-.77,1.91,2.68,2.68,0,0,0,2.58,2.68,2.18,2.18,0,0,0,1.43-.53,1.87,1.87,0,0,0,.7-1.29H92.44Z"></path>
      <path class="cls-1" d="M99.15,45.67l2.2,3H100l-2-2.92h-.19v2.92H96.73V41.58H98a3.18,3.18,0,0,1,2,.53,2,2,0,0,1,.69,1.56,2,2,0,0,1-.43,1.3,1.9,1.9,0,0,1-1.14.7m-1.34-.82h.34c1,0,1.52-.38,1.52-1.16s-.49-1.1-1.48-1.1h-.38Z"></path>
      <path class="cls-1" d="M101.9,45.11A3.47,3.47,0,0,1,103,42.53a3.62,3.62,0,0,1,2.63-1.08,3.68,3.68,0,0,1,2.61,6.31,3.78,3.78,0,0,1-5.14.12,3.52,3.52,0,0,1-1.21-2.77m1.09,0a2.64,2.64,0,0,0,4.5,1.93,2.75,2.75,0,0,0,0-3.81,2.5,2.5,0,0,0-1.87-.78A2.63,2.63,0,0,0,103,45.12"></path>
      <path class="cls-1" d="M111.77,41.58v4.29a2.35,2.35,0,0,0,.3,1.34,1.62,1.62,0,0,0,2.53,0,2.39,2.39,0,0,0,.3-1.34V41.58H116v4.59a2.54,2.54,0,0,1-.7,1.85,2.72,2.72,0,0,1-3.87,0,2.54,2.54,0,0,1-.7-1.85V41.58Z"></path>
      <path class="cls-1" d="M118.75,45.81V48.7h-1.07V41.58h1.21a5.69,5.69,0,0,1,1.36.13,1.86,1.86,0,0,1,.81.47,2,2,0,0,1,.61,1.51,2,2,0,0,1-.65,1.55,2.61,2.61,0,0,1-1.77.57Zm0-1h.4c1,0,1.48-.38,1.48-1.14s-.51-1.1-1.52-1.1h-.36Z"></path>
      <path class="cls-1" d="M1.06,58.26v-5h.76a3.52,3.52,0,0,1,.81.07,1.25,1.25,0,0,1,.51.27,1.27,1.27,0,0,1,.34.48,1.37,1.37,0,0,1,.13.59,1.19,1.19,0,0,1-.42.92,1.23,1.23,0,0,1,.64.48,1.41,1.41,0,0,1,.23.79,1.33,1.33,0,0,1-.42,1,1.24,1.24,0,0,1-.56.35,3,3,0,0,1-.86.1Zm.76-2.88h.24a.93.93,0,0,0,.63-.19.75.75,0,0,0,.19-.56.67.67,0,0,0-.2-.54.85.85,0,0,0-.59-.18H1.82Zm0,2.16H2.3a1.23,1.23,0,0,0,.76-.2.73.73,0,0,0,.25-.56.7.7,0,0,0-.25-.55A1.28,1.28,0,0,0,2.21,56H1.82Z"></path>
      <path class="cls-1" d="M6.12,55.07V56.9c0,.53.21.79.63.79s.62-.26.62-.79V55.07h.74v1.85a2.19,2.19,0,0,1-.09.66A1.34,1.34,0,0,1,7.7,58a1.44,1.44,0,0,1-1,.32,1.44,1.44,0,0,1-1-.32,1.21,1.21,0,0,1-.32-.45,1.86,1.86,0,0,1-.09-.66V55.07Z"></path>
      <path class="cls-1" d="M9.43,53.75a.48.48,0,0,1,.48-.48.48.48,0,0,1,.34.82.46.46,0,0,1-.34.14.49.49,0,0,1-.34-.14.48.48,0,0,1-.14-.34m.85,4.51H9.54V55.07h.74Z"></path>
      <rect class="cls-1" x="11.71" y="52.73" width="0.74" height="5.53"></rect>
      <path class="cls-1" d="M16.24,52.73H17v5.53h-.74v-.34a1.36,1.36,0,0,1-1,.43,1.38,1.38,0,0,1-1.08-.48,1.74,1.74,0,0,1-.43-1.21,1.72,1.72,0,0,1,.43-1.2A1.36,1.36,0,0,1,15.24,55a1.39,1.39,0,0,1,1,.46Zm-1.75,3.93a1.12,1.12,0,0,0,.24.74.79.79,0,0,0,.64.29.84.84,0,0,0,.66-.28,1.07,1.07,0,0,0,.25-.74,1.09,1.09,0,0,0-.25-.74.83.83,0,0,0-.65-.28.81.81,0,0,0-.64.28,1.08,1.08,0,0,0-.25.73"></path>
      <path class="cls-1" d="M18.3,53.75a.45.45,0,0,1,.14-.34.46.46,0,0,1,.34-.14.49.49,0,0,1,.34.14.48.48,0,0,1,0,.68.49.49,0,0,1-.34.14.48.48,0,0,1-.34-.14.44.44,0,0,1-.14-.34m.85,4.51h-.74V55.07h.74Z"></path>
      <path class="cls-1" d="M20.58,55.07h.74v.3a1.2,1.2,0,0,1,.87-.39,1.12,1.12,0,0,1,.87.35,1.45,1.45,0,0,1,.27,1v1.95h-.74V56.48a1.24,1.24,0,0,0-.13-.65.54.54,0,0,0-.47-.18.57.57,0,0,0-.52.24,1.67,1.67,0,0,0-.15.83v1.54h-.74Z"></path>
      <path class="cls-1" d="M27.84,58.18c0,.15,0,.29,0,.4s0,.22,0,.3a1.45,1.45,0,0,1-.31.62,1.5,1.5,0,0,1-1.19.5,1.55,1.55,0,0,1-1.05-.35,1.39,1.39,0,0,1-.49-1h.74a.84.84,0,0,0,.14.37.78.78,0,0,0,.67.3q.81,0,.81-1V57.9a1.39,1.39,0,0,1-1,.45A1.35,1.35,0,0,1,25,57.88a1.76,1.76,0,0,1-.42-1.2A1.84,1.84,0,0,1,25,55.5,1.37,1.37,0,0,1,26.1,55a1.29,1.29,0,0,1,1,.45v-.36h.73Zm-.7-1.51a1.1,1.1,0,0,0-.25-.74.83.83,0,0,0-.65-.28.78.78,0,0,0-.66.31,1.27,1.27,0,0,0,0,1.43.8.8,0,0,0,.66.3.82.82,0,0,0,.67-.3,1.13,1.13,0,0,0,.23-.72"></path>
      <path class="cls-1" d="M34.2,55.07h.74v3.19H34.2v-.34a1.4,1.4,0,0,1-1,.43,1.43,1.43,0,0,1-1.1-.48,1.78,1.78,0,0,1-.42-1.21,1.76,1.76,0,0,1,.42-1.2,1.39,1.39,0,0,1,2.08,0Zm-1.75,1.59a1.12,1.12,0,0,0,.24.74.79.79,0,0,0,.64.29.84.84,0,0,0,.66-.28,1.07,1.07,0,0,0,.25-.74,1.09,1.09,0,0,0-.25-.74.83.83,0,0,0-.65-.28.81.81,0,0,0-.64.28,1.08,1.08,0,0,0-.25.73"></path>
      <path class="cls-1" d="M39.68,52.73v2.71a1.36,1.36,0,0,1,1-.46,1.38,1.38,0,0,1,1.07.48,1.9,1.9,0,0,1,0,2.41,1.4,1.4,0,0,1-1.09.48,1.38,1.38,0,0,1-1-.42v.33h-.74V52.73Zm1.75,4a1.13,1.13,0,0,0-.25-.75.79.79,0,0,0-.63-.29.84.84,0,0,0-.66.28,1.06,1.06,0,0,0-.26.74,1.12,1.12,0,0,0,.25.74.84.84,0,0,0,.66.28.81.81,0,0,0,.63-.28,1,1,0,0,0,.26-.72"></path>
      <path class="cls-1" d="M46.36,56.84H44.08a1,1,0,0,0,.25.62.78.78,0,0,0,.58.23.74.74,0,0,0,.46-.13,1.92,1.92,0,0,0,.4-.48l.62.34a1.74,1.74,0,0,1-.3.42,1.5,1.5,0,0,1-.34.29,1.55,1.55,0,0,1-.4.17,2.24,2.24,0,0,1-.46.05,1.49,1.49,0,0,1-1.15-.46,1.7,1.7,0,0,1-.43-1.22,1.78,1.78,0,0,1,.42-1.23A1.46,1.46,0,0,1,44.85,55a1.42,1.42,0,0,1,1.11.45,1.78,1.78,0,0,1,.41,1.24Zm-.75-.6a.7.7,0,0,0-.74-.59.75.75,0,0,0-.26,0,.63.63,0,0,0-.21.12.73.73,0,0,0-.17.18.82.82,0,0,0-.1.25Z"></path>
      <polygon class="cls-1" points="48.49 55.76 48.49 58.26 47.75 58.26 47.75 55.76 47.44 55.76 47.44 55.07 47.75 55.07 47.75 53.9 48.49 53.9 48.49 55.07 49.06 55.07 49.06 55.76 48.49 55.76"></polygon>
      <polygon class="cls-1" points="50.83 55.76 50.83 58.26 50.09 58.26 50.09 55.76 49.78 55.76 49.78 55.07 50.09 55.07 50.09 53.9 50.83 53.9 50.83 55.07 51.4 55.07 51.4 55.76 50.83 55.76"></polygon>
      <path class="cls-1" d="M55.36,56.84H53.08a.91.91,0,0,0,.26.62.85.85,0,0,0,1,.1,1.92,1.92,0,0,0,.4-.48l.62.34a1.74,1.74,0,0,1-.3.42,1.5,1.5,0,0,1-.34.29,1.55,1.55,0,0,1-.4.17,2.24,2.24,0,0,1-.46.05,1.49,1.49,0,0,1-1.15-.46,1.7,1.7,0,0,1-.43-1.22,1.78,1.78,0,0,1,.42-1.23A1.46,1.46,0,0,1,53.85,55a1.42,1.42,0,0,1,1.11.45,1.78,1.78,0,0,1,.41,1.24Zm-.75-.6a.7.7,0,0,0-.74-.59.75.75,0,0,0-.26,0,.63.63,0,0,0-.21.12.73.73,0,0,0-.17.18.82.82,0,0,0-.1.25Z"></path>
      <path class="cls-1" d="M56.67,55.07h.74v.29a1.29,1.29,0,0,1,.36-.3.89.89,0,0,1,.38-.08,1.27,1.27,0,0,1,.61.19l-.34.68A.72.72,0,0,0,58,55.7c-.4,0-.6.3-.6.91v1.65h-.74Z"></path>
      <path class="cls-1" d="M63,55.76v2.5h-.74v-2.5H62v-.69h.27V53.84a1.34,1.34,0,0,1,.21-.85,1,1,0,0,1,.83-.35,1.42,1.42,0,0,1,.5.12v.75l-.08,0a.93.93,0,0,0-.39-.12.26.26,0,0,0-.26.14A1.27,1.27,0,0,0,63,54v1h.8v.69Z"></path>
      <path class="cls-1" d="M65.48,55.07V56.9c0,.53.21.79.63.79s.62-.26.62-.79V55.07h.74v1.85a1.91,1.91,0,0,1-.1.66,1.18,1.18,0,0,1-.31.45,1.57,1.57,0,0,1-1.9,0,1.21,1.21,0,0,1-.32-.45,1.86,1.86,0,0,1-.09-.66V55.07Z"></path>
      <polygon class="cls-1" points="69.66 55.76 69.66 58.26 68.92 58.26 68.92 55.76 68.61 55.76 68.61 55.07 68.92 55.07 68.92 53.9 69.66 53.9 69.66 55.07 70.23 55.07 70.23 55.76 69.66 55.76"></polygon>
      <path class="cls-1" d="M72,55.07V56.9c0,.53.21.79.63.79s.62-.26.62-.79V55.07H74v1.85a2.19,2.19,0,0,1-.09.66,1.34,1.34,0,0,1-.32.45,1.57,1.57,0,0,1-1.9,0,1.21,1.21,0,0,1-.32-.45,1.86,1.86,0,0,1-.09-.66V55.07Z"></path>
      <path class="cls-1" d="M75.39,55.07h.74v.29a1.45,1.45,0,0,1,.36-.3.89.89,0,0,1,.38-.08,1.27,1.27,0,0,1,.61.19l-.34.68a.72.72,0,0,0-.41-.15c-.4,0-.6.3-.6.91v1.65h-.74Z"></path>
      <path class="cls-1" d="M81.26,56.84H79a1,1,0,0,0,.25.62.75.75,0,0,0,.58.23.78.78,0,0,0,.46-.13,2.16,2.16,0,0,0,.4-.48l.62.34a2.54,2.54,0,0,1-.3.42,1.54,1.54,0,0,1-.35.29,1.31,1.31,0,0,1-.4.17,2.16,2.16,0,0,1-.46.05,1.48,1.48,0,0,1-1.14-.46,1.7,1.7,0,0,1-.43-1.22,1.78,1.78,0,0,1,.42-1.23,1.59,1.59,0,0,1,2.23,0,1.78,1.78,0,0,1,.4,1.24Zm-.76-.6a.77.77,0,0,0-1-.55.68.68,0,0,0-.22.12.93.93,0,0,0-.16.18.82.82,0,0,0-.11.25Z"></path>
      <path class="cls-1" d="M82.68,57.89a.41.41,0,0,1,.14-.31.43.43,0,0,1,.32-.14.45.45,0,0,1,.32.14.41.41,0,0,1,.13.32.44.44,0,0,1-.45.45.44.44,0,0,1-.33-.13.49.49,0,0,1-.13-.33"></path>
      <path class="cls-1" d="M85.25,57.89a.41.41,0,0,1,.14-.31.43.43,0,0,1,.32-.14.45.45,0,0,1,.32.14.41.41,0,0,1,.13.32.44.44,0,0,1-.13.32.42.42,0,0,1-.32.13.44.44,0,0,1-.33-.13.49.49,0,0,1-.13-.33"></path>
      <path class="cls-1" d="M87.83,57.89a.4.4,0,0,1,.13-.31.44.44,0,0,1,.64,0,.41.41,0,0,1,.13.32.44.44,0,0,1-.13.32.42.42,0,0,1-.32.13.41.41,0,0,1-.32-.13.44.44,0,0,1-.13-.33"></path>
      <polygon class="cls-1" points="93.61 55.76 93.61 58.26 92.88 58.26 92.88 55.76 92.56 55.76 92.56 55.07 92.88 55.07 92.88 53.9 93.61 53.9 93.61 55.07 94.19 55.07 94.19 55.76 93.61 55.76"></polygon>
      <path class="cls-1" d="M95.08,56.64a1.57,1.57,0,0,1,.5-1.17,1.63,1.63,0,0,1,1.2-.49,1.68,1.68,0,0,1,1.21.49,1.63,1.63,0,0,1,.49,1.2,1.6,1.6,0,0,1-.49,1.2,1.69,1.69,0,0,1-1.22.48,1.6,1.6,0,0,1-1.2-.49,1.67,1.67,0,0,1-.49-1.22m.76,0a1.06,1.06,0,0,0,.25.75.9.9,0,0,0,.69.28.88.88,0,0,0,.69-.28,1.18,1.18,0,0,0,0-1.48,1,1,0,0,0-1.37,0,1,1,0,0,0-.26.73"></path>
      <path class="cls-1" d="M102.85,58.18c0,.15,0,.29,0,.4a1.21,1.21,0,0,1,0,.3,1.33,1.33,0,0,1-.3.62,1.7,1.7,0,0,1-2.24.15,1.35,1.35,0,0,1-.49-1h.74a.74.74,0,0,0,.14.37.77.77,0,0,0,.66.3q.81,0,.81-1V57.9a1.37,1.37,0,0,1-1,.45,1.39,1.39,0,0,1-1.07-.47,1.8,1.8,0,0,1-.41-1.2A1.89,1.89,0,0,1,100,55.5a1.38,1.38,0,0,1,1.11-.52,1.27,1.27,0,0,1,1,.45v-.36h.74Zm-.71-1.51a1.05,1.05,0,0,0-.25-.74.8.8,0,0,0-.64-.28.78.78,0,0,0-.66.31,1.27,1.27,0,0,0,0,1.43.8.8,0,0,0,.66.3.83.83,0,0,0,.67-.3,1.12,1.12,0,0,0,.22-.72"></path>
      <path class="cls-1" d="M107.18,56.84H104.9a1,1,0,0,0,.26.62.75.75,0,0,0,.58.23.73.73,0,0,0,.45-.13,1.92,1.92,0,0,0,.4-.48l.62.34a1.74,1.74,0,0,1-.3.42,1.5,1.5,0,0,1-.34.29,1.55,1.55,0,0,1-.4.17,2.24,2.24,0,0,1-.46.05,1.49,1.49,0,0,1-1.15-.46,1.74,1.74,0,0,1-.43-1.22,1.78,1.78,0,0,1,.42-1.23,1.46,1.46,0,0,1,1.12-.46,1.42,1.42,0,0,1,1.11.45,1.78,1.78,0,0,1,.41,1.24Zm-.75-.6a.7.7,0,0,0-.74-.59.75.75,0,0,0-.26,0,.63.63,0,0,0-.21.12.73.73,0,0,0-.17.18.82.82,0,0,0-.1.25Z"></path>
      <polygon class="cls-1" points="109.31 55.76 109.31 58.26 108.57 58.26 108.57 55.76 108.26 55.76 108.26 55.07 108.57 55.07 108.57 53.9 109.31 53.9 109.31 55.07 109.88 55.07 109.88 55.76 109.31 55.76"></polygon>
      <path class="cls-1" d="M111,52.73h.74v2.61a1.25,1.25,0,0,1,.87-.36,1.13,1.13,0,0,1,.86.35,1.47,1.47,0,0,1,.27,1v1.95H113V56.37a.89.89,0,0,0-.14-.55.49.49,0,0,0-.43-.17.62.62,0,0,0-.55.24,1.65,1.65,0,0,0-.15.83v1.54H111Z"></path>
      <path class="cls-1" d="M118.1,56.84h-2.28a1,1,0,0,0,.25.62.76.76,0,0,0,.58.23.74.74,0,0,0,.46-.13,1.92,1.92,0,0,0,.4-.48l.62.34a2.06,2.06,0,0,1-.3.42,1.57,1.57,0,0,1-.74.46,2.24,2.24,0,0,1-.46.05,1.49,1.49,0,0,1-1.15-.46,1.7,1.7,0,0,1-.43-1.22,1.78,1.78,0,0,1,.42-1.23,1.46,1.46,0,0,1,1.12-.46,1.42,1.42,0,0,1,1.11.45,1.78,1.78,0,0,1,.41,1.24Zm-.75-.6a.71.71,0,0,0-.75-.59.69.69,0,0,0-.25,0,.55.55,0,0,0-.21.12A.73.73,0,0,0,116,56a.82.82,0,0,0-.1.25Z"></path>
      <path class="cls-1" d="M119.41,55.07h.74v.29a1.29,1.29,0,0,1,.36-.3.86.86,0,0,1,.38-.08,1.3,1.3,0,0,1,.61.19l-.34.68a.72.72,0,0,0-.41-.15c-.4,0-.6.3-.6.91v1.65h-.74Z"></path>
      <path class="cls-2" d="M76.62,14.94l-14-14a3.17,3.17,0,0,0-4.49,0l-14,14a3.17,3.17,0,0,0,0,4.49l14,14a3.19,3.19,0,0,0,4.49,0l14-14A3.19,3.19,0,0,0,76.62,14.94Zm-3.61,4L62.07,29.83a2.4,2.4,0,0,1-3.41,0L47.71,18.89a2.41,2.41,0,0,1,0-3.41L58.66,4.53a2.41,2.41,0,0,1,3.41,0L64,6.42a.3.3,0,0,1,0,.44.31.31,0,0,1-.44,0L61.62,5A1.77,1.77,0,0,0,59.1,5L48.16,15.92a1.77,1.77,0,0,0,0,2.52l10.94,11a1.77,1.77,0,0,0,2.52,0L72.57,18.44a1.77,1.77,0,0,0,0-2.52l-6-6L59.8,16.7a.31.31,0,0,1-.44,0,.33.33,0,0,1,0-.45L66.58,9,73,15.48A2.4,2.4,0,0,1,73,18.89ZM51.25,18l8.34,8.34a1.09,1.09,0,0,0,1.55,0L69.48,18a1.1,1.1,0,0,0,0-1.55l-2.9-2.9-5,5a.31.31,0,0,1-.44,0,.33.33,0,0,1,0-.45l5.43-5.42L69.92,16a1.67,1.67,0,0,1,.51,1.21,1.69,1.69,0,0,1-.51,1.22l-8.34,8.34a1.72,1.72,0,0,1-1.22.51,1.68,1.68,0,0,1-1.21-.51L50.8,18.4a1.72,1.72,0,0,1-.5-1.22A1.7,1.7,0,0,1,50.8,16l8.35-8.35a1.72,1.72,0,0,1,2.43,0l.59.59a.31.31,0,0,1,0,.44.33.33,0,0,1-.45,0l-.58-.58a1.09,1.09,0,0,0-1.55,0l-8.34,8.34a1.1,1.1,0,0,0,0,1.55Z"></path>
    </g>
  </g>
</svg>
